<svg version="1.1" id="Layer_1" xmlns="http://www.w3.org/2000/svg" xmlns:xlink="http://www.w3.org/1999/xlink" x="0px" y="0px"
	 width="100%" viewBox="0 0 324 242" enable-background="new 0 0 324 242" xml:space="preserve">
<path fill="#000000" opacity="1.000000" stroke="none" 
	d="
M235.000000,243.000000 
	C156.666687,243.000000 78.833382,243.000000 1.000052,243.000000 
	C1.000035,162.333374 1.000035,81.666763 1.000017,1.000106 
	C108.999916,1.000071 216.999832,1.000071 324.999817,1.000035 
	C324.999878,81.666565 324.999878,162.333130 324.999939,242.999847 
	C295.166656,243.000000 265.333344,243.000000 235.000000,243.000000 
M154.108093,171.941528 
	C158.515961,170.965759 162.921082,169.977463 167.332199,169.016586 
	C180.252289,166.202225 189.787537,159.368393 193.864044,146.303574 
	C196.835114,136.781525 196.542786,127.470901 191.172424,118.726158 
	C185.740921,109.881882 176.818222,105.924248 167.815277,102.036568 
	C159.686172,98.526222 151.369614,95.328651 143.611816,91.116341 
	C136.822037,87.429649 137.160126,78.499336 144.045242,75.113243 
	C147.696671,73.317474 152.110458,72.000389 156.103180,72.179749 
	C166.305161,72.638023 176.464005,74.056923 186.952484,75.123337 
	C186.952484,69.931534 186.783966,64.118607 187.020172,58.322178 
	C187.147430,55.198925 185.593521,54.281422 183.005112,54.031601 
	C179.261185,53.670258 175.468155,53.586441 171.780106,52.919521 
	C159.596542,50.716320 147.424301,50.751961 135.868271,55.190006 
	C117.052406,62.416157 111.504601,77.303024 115.441246,94.674492 
	C118.135971,106.565651 127.697746,112.529625 138.201706,116.954468 
	C146.334930,120.380646 154.672821,123.349815 162.670456,127.059555 
	C168.595444,129.807892 171.022400,135.118881 169.996735,140.735626 
	C169.056488,145.884644 165.362549,148.919861 158.894943,150.049408 
	C146.078659,152.287735 133.554306,151.104233 121.231979,147.082031 
	C118.682510,146.249863 116.056694,145.651566 113.032822,144.827408 
	C113.032822,151.696945 112.848900,158.019714 113.186050,164.314545 
	C113.254509,165.592667 115.070084,167.431747 116.449402,167.882462 
	C128.382050,171.781860 140.732758,172.360092 154.108093,171.941528 
M263.931610,57.857552 
	C262.183167,55.304657 260.737122,52.463821 258.630920,50.251534 
	C251.623871,42.891548 242.679352,40.770100 232.799896,40.975494 
	C222.122391,41.197487 222.118530,41.011734 222.035904,51.364273 
	C221.984024,57.865059 221.997223,57.655277 228.493332,58.063805 
	C238.178680,58.672909 245.595016,61.756298 246.084900,73.396889 
	C246.383408,80.490005 246.983337,87.582176 246.970718,94.673920 
	C246.951706,105.367012 250.114227,114.000069 261.193756,118.535400 
	C249.679230,122.682785 247.053802,131.568222 246.976624,142.177002 
	C246.902023,152.434128 246.532303,162.697021 245.973267,172.939972 
	C245.586304,180.029816 239.536026,185.594437 232.399948,186.033020 
	C222.024796,186.670670 222.024872,186.670670 222.038452,197.286301 
	C222.039307,197.952423 222.092255,198.623993 222.027084,199.283752 
	C221.698914,202.605881 222.868805,204.268570 226.515320,204.004257 
	C229.827896,203.764191 233.222916,204.344406 236.494034,203.907471 
	C247.784729,202.399353 257.844116,199.241821 263.373077,187.525452 
	C266.791565,180.281387 267.298645,172.796616 267.830841,165.270889 
	C268.405029,157.151749 267.891113,148.959564 267.970490,140.800415 
	C268.049713,132.653641 271.062469,129.166656 278.989105,127.977386 
	C282.429810,127.461182 285.906281,127.183647 290.181976,126.706749 
	C290.181976,121.430359 290.181976,115.873695 290.181976,110.370155 
	C270.256927,108.961212 267.365784,107.087021 267.945190,86.187080 
	C267.977478,85.022453 267.965942,83.854980 267.928467,82.690315 
	C267.664917,74.504036 267.237335,66.343033 263.931610,57.857552 
M40.993916,100.908340 
	C36.903374,111.138680 27.269638,109.026237 19.179447,110.425041 
	C19.179447,115.941277 19.179447,121.236397 19.179447,127.055244 
	C21.145451,127.055244 22.982914,127.227585 24.777788,127.024155 
	C31.129322,126.304283 38.218891,129.990005 40.197365,135.777542 
	C41.335629,139.107254 41.864021,142.774612 41.954395,146.308212 
	C42.188671,155.468124 41.498138,164.676590 42.159794,173.794342 
	C42.984077,185.153137 47.278336,194.665192 58.409924,200.178894 
	C65.843727,203.861023 73.528862,204.031799 81.410194,203.989304 
	C86.066002,203.964203 87.625114,201.950851 86.990456,197.280670 
	C86.676880,194.973267 87.396942,192.470154 86.822021,190.271942 
	C86.402786,188.668945 84.881180,186.944260 83.385971,186.156509 
	C82.082603,185.469818 80.128700,186.026611 78.462303,186.018845 
	C69.580063,185.977402 63.699741,181.143127 63.078014,172.260620 
	C62.310486,161.295029 62.337254,150.274994 61.937302,139.281509 
	C61.867096,137.351822 61.402039,135.434586 61.092686,133.515884 
	C59.927429,126.288612 55.363224,121.726646 47.966156,118.392769 
	C56.867409,114.885284 61.289368,108.904175 61.881710,100.549721 
	C62.513218,91.642876 62.724915,82.701134 62.923332,73.770256 
	C63.102501,65.705978 67.036316,60.626453 74.981316,59.040958 
	C78.488281,58.341114 82.075256,58.042213 86.203033,57.483120 
	C86.203033,52.227951 86.203033,46.798401 86.203033,41.050995 
	C80.909698,41.050995 76.263374,40.824245 71.645561,41.091045 
	C53.610935,42.133026 43.877930,53.375034 42.141968,70.312508 
	C41.131962,80.166985 41.356480,90.147987 40.993916,100.908340 
z"/>
<path fill="#67FAD9" opacity="1.000000" stroke="none" 
	d="
M153.639023,171.965790 
	C140.732758,172.360092 128.382050,171.781860 116.449402,167.882462 
	C115.070084,167.431747 113.254509,165.592667 113.186050,164.314545 
	C112.848900,158.019714 113.032822,151.696945 113.032822,144.827408 
	C116.056694,145.651566 118.682510,146.249863 121.231979,147.082031 
	C133.554306,151.104233 146.078659,152.287735 158.894943,150.049408 
	C165.362549,148.919861 169.056488,145.884644 169.996735,140.735626 
	C171.022400,135.118881 168.595444,129.807892 162.670456,127.059555 
	C154.672821,123.349815 146.334930,120.380646 138.201706,116.954468 
	C127.697746,112.529625 118.135971,106.565651 115.441246,94.674492 
	C111.504601,77.303024 117.052406,62.416157 135.868271,55.190006 
	C147.424301,50.751961 159.596542,50.716320 171.780106,52.919521 
	C175.468155,53.586441 179.261185,53.670258 183.005112,54.031601 
	C185.593521,54.281422 187.147430,55.198925 187.020172,58.322178 
	C186.783966,64.118607 186.952484,69.931534 186.952484,75.123337 
	C176.464005,74.056923 166.305161,72.638023 156.103180,72.179749 
	C152.110458,72.000389 147.696671,73.317474 144.045242,75.113243 
	C137.160126,78.499336 136.822037,87.429649 143.611816,91.116341 
	C151.369614,95.328651 159.686172,98.526222 167.815277,102.036568 
	C176.818222,105.924248 185.740921,109.881882 191.172424,118.726158 
	C196.542786,127.470901 196.835114,136.781525 193.864044,146.303574 
	C189.787537,159.368393 180.252289,166.202225 167.332199,169.016586 
	C162.921082,169.977463 158.515961,170.965759 153.639023,171.965790 
z"/>
<path fill="#979FAD" opacity="1.000000" stroke="none" 
	d="
M263.961243,58.251114 
	C267.237335,66.343033 267.664917,74.504036 267.928467,82.690315 
	C267.965942,83.854980 267.977478,85.022453 267.945190,86.187080 
	C267.365784,107.087021 270.256927,108.961212 290.181976,110.370155 
	C290.181976,115.873695 290.181976,121.430359 290.181976,126.706749 
	C285.906281,127.183647 282.429810,127.461182 278.989105,127.977386 
	C271.062469,129.166656 268.049713,132.653641 267.970490,140.800415 
	C267.891113,148.959564 268.405029,157.151749 267.830841,165.270889 
	C267.298645,172.796616 266.791565,180.281387 263.373077,187.525452 
	C257.844116,199.241821 247.784729,202.399353 236.494034,203.907471 
	C233.222916,204.344406 229.827896,203.764191 226.515320,204.004257 
	C222.868805,204.268570 221.698914,202.605881 222.027084,199.283752 
	C222.092255,198.623993 222.039307,197.952423 222.038452,197.286301 
	C222.024872,186.670670 222.024796,186.670670 232.399948,186.033020 
	C239.536026,185.594437 245.586304,180.029816 245.973267,172.939972 
	C246.532303,162.697021 246.902023,152.434128 246.976624,142.177002 
	C247.053802,131.568222 249.679230,122.682785 261.193756,118.535400 
	C250.114227,114.000069 246.951706,105.367012 246.970718,94.673920 
	C246.983337,87.582176 246.383408,80.490005 246.084900,73.396889 
	C245.595016,61.756298 238.178680,58.672909 228.493332,58.063805 
	C221.997223,57.655277 221.984024,57.865059 222.035904,51.364273 
	C222.118530,41.011734 222.122391,41.197487 232.799896,40.975494 
	C242.679352,40.770100 251.623871,42.891548 258.630920,50.251534 
	C260.737122,52.463821 262.183167,55.304657 263.961243,58.251114 
z"/>
<path fill="#98A0AE" opacity="1.000000" stroke="none" 
	d="
M41.009716,100.490204 
	C41.356480,90.147987 41.131962,80.166985 42.141968,70.312508 
	C43.877930,53.375034 53.610935,42.133026 71.645561,41.091045 
	C76.263374,40.824245 80.909698,41.050995 86.203033,41.050995 
	C86.203033,46.798401 86.203033,52.227951 86.203033,57.483120 
	C82.075256,58.042213 78.488281,58.341114 74.981316,59.040958 
	C67.036316,60.626453 63.102501,65.705978 62.923332,73.770256 
	C62.724915,82.701134 62.513218,91.642876 61.881710,100.549721 
	C61.289368,108.904175 56.867409,114.885284 47.966156,118.392769 
	C55.363224,121.726646 59.927429,126.288612 61.092686,133.515884 
	C61.402039,135.434586 61.867096,137.351822 61.937302,139.281509 
	C62.337254,150.274994 62.310486,161.295029 63.078014,172.260620 
	C63.699741,181.143127 69.580063,185.977402 78.462303,186.018845 
	C80.128700,186.026611 82.082603,185.469818 83.385971,186.156509 
	C84.881180,186.944260 86.402786,188.668945 86.822021,190.271942 
	C87.396942,192.470154 86.676880,194.973267 86.990456,197.280670 
	C87.625114,201.950851 86.066002,203.964203 81.410194,203.989304 
	C73.528862,204.031799 65.843727,203.861023 58.409924,200.178894 
	C47.278336,194.665192 42.984077,185.153137 42.159794,173.794342 
	C41.498138,164.676590 42.188671,155.468124 41.954395,146.308212 
	C41.864021,142.774612 41.335629,139.107254 40.197365,135.777542 
	C38.218891,129.990005 31.129322,126.304283 24.777788,127.024155 
	C22.982914,127.227585 21.145451,127.055244 19.179447,127.055244 
	C19.179447,121.236397 19.179447,115.941277 19.179447,110.425041 
	C27.269638,109.026237 36.903374,111.138680 41.009716,100.490204 
z"/>
</svg>